<svg width="480" height="109" viewBox="0 0 480 109" xmlns="http://www.w3.org/2000/svg"><title>ubuntu_black-orange_hex</title><g fill="none" fill-rule="evenodd"><path d="M479.59 29.283c0 15.85-12.85 28.7-28.702 28.7-15.852 0-28.703-12.85-28.703-28.7 0-15.852 12.85-28.703 28.703-28.703 15.852 0 28.702 12.85 28.702 28.703" fill="#CB452B"/><path d="M458.73 15.696c1.833 1.06 4.176.432 5.233-1.4 1.06-1.834.432-4.177-1.4-5.235-1.834-1.056-4.176-.428-5.235 1.404-1.058 1.832-.43 4.175 1.403 5.232zm-7.842 24.78c-1.685 0-3.283-.375-4.715-1.042l-2.663 4.772c2.224 1.102 4.728 1.724 7.378 1.724 1.54 0 3.03-.214 4.447-.606.25-1.54 1.164-2.957 2.62-3.8 1.457-.84 3.14-.922 4.596-.372 2.834-2.786 4.68-6.576 4.947-10.797l-5.462-.08c-.502 5.72-5.3 10.2-11.147 10.2zm0-22.388c5.847 0 10.645 4.484 11.148 10.202l5.46-.08c-.267-4.222-2.112-8.012-4.945-10.798-1.456.55-3.14.466-4.594-.373-1.457-.842-2.37-2.26-2.62-3.8-1.417-.39-2.907-.605-4.448-.605-2.65 0-5.154.623-7.378 1.723l2.663 4.772c1.432-.667 3.03-1.042 4.715-1.042zm-11.193 11.195c0-3.787 1.88-7.133 4.76-9.16l-2.802-4.69c-3.353 2.24-5.848 5.664-6.884 9.675 1.208.987 1.983 2.49 1.983 4.175 0 1.683-.775 3.185-1.984 4.173 1.034 4.012 3.528 7.436 6.883 9.678l2.8-4.694c-2.877-2.025-4.758-5.37-4.758-9.157zm19.037 13.583c-1.833 1.06-2.462 3.4-1.403 5.233 1.057 1.833 3.4 2.46 5.232 1.402 1.833-1.057 2.46-3.4 1.402-5.233-1.057-1.832-3.4-2.46-5.232-1.404zm-27.36-17.417c-2.118 0-3.834 1.715-3.834 3.833 0 2.116 1.716 3.83 3.833 3.83s3.832-1.714 3.832-3.83c0-2.118-1.715-3.834-3.83-3.834z" fill="#FFF"/><path d="M57.404 104.595c-2.916.73-6.765 1.504-11.548 2.323-4.784.82-10.32 1.23-16.607 1.23-5.468 0-10.07-.798-13.805-2.39-3.738-1.593-6.745-3.85-9.02-6.766-2.28-2.915-3.92-6.356-4.92-10.32C.5 84.71 0 80.315 0 75.483V35.575h12.71V72.75c0 8.657 1.368 14.853 4.1 18.587 2.735 3.738 7.335 5.605 13.806 5.605 1.367 0 2.778-.046 4.237-.138 1.456-.09 2.823-.205 4.1-.34 1.275-.138 2.437-.274 3.486-.41 1.045-.138 1.797-.295 2.254-.48v-60h12.71v69.02M88.43 95.575c1.274.365 3.073.706 5.397 1.024 2.324.32 5.216.478 8.68.478 6.833 0 12.3-2.255 16.4-6.765 4.1-4.51 6.15-10.912 6.15-19.205 0-3.64-.364-7.058-1.092-10.25-.73-3.188-1.914-5.944-3.554-8.268-1.64-2.324-3.758-4.145-6.354-5.468-2.597-1.32-5.72-1.98-9.363-1.98-3.464 0-6.652.593-9.567 1.776-2.917 1.185-5.15 2.416-6.697 3.69v44.967zm0-56.858c1.547-1 3.894-2.05 7.037-3.143 3.144-1.094 6.766-1.64 10.866-1.64 5.102 0 9.636.91 13.6 2.733 3.963 1.824 7.312 4.374 10.045 7.654 2.734 3.282 4.806 7.2 6.22 11.756 1.41 4.557 2.118 9.566 2.118 15.032 0 5.742-.844 10.915-2.53 15.515-1.686 4.6-4.078 8.496-7.174 11.685-3.1 3.19-6.834 5.65-11.208 7.38-4.373 1.73-9.294 2.597-14.76 2.597-5.925 0-11.163-.41-15.72-1.23-4.556-.82-8.29-1.64-11.206-2.46V2.77L88.428.584v38.133zM209.25 104.595c-2.918.73-6.766 1.504-11.55 2.323-4.784.82-10.32 1.23-16.606 1.23-5.467 0-10.07-.798-13.805-2.39-3.738-1.593-6.745-3.85-9.02-6.766-2.28-2.915-3.92-6.356-4.92-10.32-1.005-3.963-1.505-8.358-1.505-13.19V35.575h12.71V72.75c0 8.657 1.368 14.853 4.1 18.587 2.735 3.738 7.335 5.605 13.806 5.605 1.367 0 2.78-.046 4.238-.138 1.456-.09 2.823-.205 4.1-.34 1.275-.138 2.437-.274 3.485-.41 1.047-.138 1.798-.295 2.255-.48v-60h12.712v69.02M227.562 37.624c2.915-.73 6.787-1.504 11.62-2.324 4.827-.82 10.385-1.23 16.672-1.23 5.65 0 10.34.798 14.078 2.392 3.736 1.595 6.72 3.826 8.952 6.697 2.23 2.87 3.804 6.31 4.716 10.318.91 4.01 1.367 8.43 1.367 13.258v39.91h-12.712V69.468c0-4.374-.297-8.11-.888-11.208-.594-3.096-1.57-5.603-2.94-7.516-1.365-1.915-3.188-3.303-5.466-4.17-2.278-.865-5.102-1.298-8.472-1.298-1.368 0-2.78.047-4.237.136-1.458.092-2.848.206-4.168.343-1.323.136-2.507.297-3.553.478-1.05.184-1.802.32-2.256.41v60h-12.712v-69.02M314.35 35.574h26.926v10.66H314.35v32.803c0 3.553.273 6.492.82 8.815.548 2.325 1.368 4.147 2.46 5.467 1.094 1.32 2.46 2.255 4.1 2.8 1.64.548 3.554.822 5.74.822 3.918 0 7.017-.432 9.296-1.3 2.275-.864 3.826-1.478 4.646-1.843l2.733 10.386c-1.276.638-3.532 1.46-6.765 2.46-3.235 1-6.9 1.503-11.002 1.503-4.83 0-8.815-.615-11.96-1.846-3.143-1.23-5.67-3.076-7.585-5.536-1.913-2.46-3.258-5.49-4.032-9.09-.774-3.597-1.16-7.765-1.16-12.505V15.756l12.71-2.187v22.004M410.434 104.595c-2.918.73-6.767 1.504-11.55 2.323-4.784.82-10.318 1.23-16.606 1.23-5.467 0-10.07-.798-13.805-2.39-3.737-1.593-6.744-3.85-9.02-6.766-2.28-2.915-3.92-6.356-4.92-10.32-1.005-3.963-1.504-8.358-1.504-13.19V35.575h12.71V72.75c0 8.657 1.367 14.853 4.1 18.587 2.734 3.738 7.334 5.605 13.804 5.605 1.367 0 2.778-.046 4.238-.138 1.456-.09 2.823-.205 4.1-.34 1.275-.138 2.436-.274 3.485-.41 1.047-.138 1.798-.295 2.255-.48v-60h12.712v69.02" fill="#0A0B09"/></g></svg>