<svg width="277" height="138" viewBox="0 0 277 138" xmlns="http://www.w3.org/2000/svg"><g fill="none" fill-rule="evenodd"><path d="M274.29 81.448c-1.448-3.074-4.097-5.414-7.29-6.445l-7.98-2.73 6.433-1.63c3.393-.78 6.312-2.908 8.037-5.865 1.818-3.12 2.193-6.853 1.055-10.53-1.695-5.674-7.062-13.844-11.186-18.19-2.687-3.173-6.454-4.98-10.422-4.98-3.21 0-6.208 1.192-8.443 3.357l-.56.543-.46.63-5.97 8.185c-.565-10.073-1.19-20.312-2.08-30.252-.262-6.116-4.71-12.51-14.09-12.51-.29 0-.59.005-.897.018l-.58.023-.568.097c-6.588 1.108-12.342 2.65-19.238 5.152l-.2.072-.197.082c-5.997 2.5-8.406 6.302-9.37 9.05-1.16 3.308-.858 6.852.856 9.978l.07.126.073.125c5.322 9.022 10.98 17.908 16.47 26.518l-8.66-3.488-.672-.27-.706-.162c-.848-.194-1.726-.292-2.606-.292-6.38 0-11.834 4.878-12.904 11.436-.053.242-.094.526-.144.78-2.1-2.408-4.77-4.577-8.253-6.23-3.738-1.775-7.923-2.715-12.102-2.715-3.434 0-6.784.626-9.863 1.83-2.206-1.292-4.804-2.026-7.597-2.026-4.254 0-8.017 1.706-10.653 4.458v-5.8c0-8.088-6.367-14.183-14.81-14.183h-.003c-8.444 0-14.81 6.096-14.81 14.18v12.403c-.717-.98-1.478-1.918-2.322-2.78-3.404-3.472-9.59-7.612-19.727-7.612-.474 0-.956.01-1.445.028-5.628.206-13.152 1.63-19.217 6.854-1.482-2.23-3.632-4.118-6.355-5.396-2.14-1.003-4.522-1.53-6.894-1.53h-.002c-6.566 0-11.998 3.925-13.84 10l-1.676 5.536-3.676-7.227c-2.444-4.807-7.11-7.68-12.476-7.68-1.96 0-3.977.38-5.998 1.12-3.974 1.456-7.163 4.548-8.746 8.478-1.646 4.087-1.432 8.63.6 12.797l15.44 31.637c-4.755 1.47-8.303 5.01-9.71 9.948-1.257 4.403-.466 8.98 2.168 12.557 2.084 2.832 6.217 6.248 14.066 6.436.312.01.623.013.93.013 11.58 0 19.492-5.783 22.88-16.724l4.982-16.1c4.032 12.474 13.53 19.578 27.013 19.578l.374-.002c12.867-.13 20.202-5.138 24.294-9.957 1.837 5.812 7.31 9.81 14.146 9.81 4.42 0 8.257-1.678 10.924-4.428v5.77c0 8.084 6.338 14.183 14.744 14.183 8.406 0 14.745-6.1 14.745-14.183v-1.593c.22.014.44.024.662.03.41.016.817.02 1.215.02 10.05 0 16.227-4.18 19.64-7.688 7.066-7.267 8.475-17.68 8.687-24.362 1.575.69 3.294 1.103 5.124 1.103 1.378 0 2.734-.22 4.036-.65l5.252-1.624-4.483 5.332c-2.297 2.63-3.41 6.083-3.062 9.5.368 3.59 2.266 6.83 5.353 9.13 4.708 3.588 13.853 7.03 19.748 8.113 1.14.277 2.3.418 3.45.418 6.36 0 11.725-4.295 12.75-10.21l.134-.77v-.783l.004-8.538 4.78 7.926.517.595c2.272 2.615 5.69 4.117 9.378 4.117 3.633 0 7.175-1.465 9.82-4.04 4.878-4.2 10.07-11.355 12.236-16.884 1.484-3.656 1.434-7.662-.144-11.01" fill="#FFF"/><path d="M274.29 81.448c-1.448-3.074-4.097-5.414-7.29-6.445l-7.98-2.73 6.433-1.63c3.393-.78 6.312-2.908 8.037-5.865 1.818-3.12 2.193-6.853 1.055-10.53-1.695-5.674-7.062-13.844-11.186-18.19-2.687-3.173-6.454-4.98-10.422-4.98-3.21 0-6.208 1.192-8.443 3.357l-.56.543-.46.63-5.97 8.185c-.565-10.073-1.19-20.312-2.08-30.252-.262-6.116-4.71-12.51-14.09-12.51-.29 0-.59.005-.897.018l-.58.023-.568.097c-6.588 1.108-12.342 2.65-19.238 5.152l-.2.072-.197.082c-5.997 2.5-8.406 6.302-9.37 9.05-1.16 3.308-.858 6.852.856 9.978l.07.126.073.125c5.322 9.022 10.98 17.908 16.47 26.518l-8.66-3.488-.672-.27-.706-.162c-.848-.194-1.726-.292-2.606-.292-6.38 0-11.834 4.878-12.904 11.436-.053.242-.094.526-.144.78-2.1-2.408-4.77-4.577-8.253-6.23-3.738-1.775-7.923-2.715-12.102-2.715-3.434 0-6.784.626-9.863 1.83-2.206-1.292-4.804-2.026-7.597-2.026-4.254 0-8.017 1.706-10.653 4.458v-5.8c0-8.088-6.367-14.183-14.81-14.183h-.003c-8.444 0-14.81 6.096-14.81 14.18v12.403c-.717-.98-1.478-1.918-2.322-2.78-3.404-3.472-9.59-7.612-19.727-7.612-.474 0-.956.01-1.445.028-5.628.206-13.152 1.63-19.217 6.854-1.482-2.23-3.632-4.118-6.355-5.396-2.14-1.003-4.522-1.53-6.894-1.53h-.002c-6.566 0-11.998 3.925-13.84 10l-1.676 5.536-3.676-7.227c-2.444-4.807-7.11-7.68-12.476-7.68-1.96 0-3.977.38-5.998 1.12-3.974 1.456-7.163 4.548-8.746 8.478-1.646 4.087-1.432 8.63.6 12.797l15.44 31.637c-4.755 1.47-8.303 5.01-9.71 9.948-1.257 4.403-.466 8.98 2.168 12.557 2.084 2.832 6.217 6.248 14.066 6.436.312.01.623.013.93.013 11.58 0 19.492-5.783 22.88-16.724l4.982-16.1c4.032 12.474 13.53 19.578 27.013 19.578l.374-.002c12.867-.13 20.202-5.138 24.294-9.957 1.837 5.812 7.31 9.81 14.146 9.81 4.42 0 8.257-1.678 10.924-4.428v5.77c0 8.084 6.338 14.183 14.744 14.183 8.406 0 14.745-6.1 14.745-14.183v-1.593c.22.014.44.024.662.03.41.016.817.02 1.215.02 10.05 0 16.227-4.18 19.64-7.688 7.066-7.267 8.475-17.68 8.687-24.362 1.575.69 3.294 1.103 5.124 1.103 1.378 0 2.734-.22 4.036-.65l5.252-1.624-4.483 5.332c-2.297 2.63-3.41 6.083-3.062 9.5.368 3.59 2.266 6.83 5.353 9.13 4.708 3.588 13.853 7.03 19.748 8.113 1.14.277 2.3.418 3.45.418 6.36 0 11.725-4.295 12.75-10.21l.134-.77v-.783l.004-8.538 4.78 7.926.517.595c2.272 2.615 5.69 4.117 9.378 4.117 3.633 0 7.175-1.465 9.82-4.04 4.878-4.2 10.07-11.355 12.236-16.884 1.484-3.656 1.434-7.662-.144-11.01z" stroke="#C7C7C2"/><path d="M250.836 40.975c1.277-1.238 3.924-1.132 5.71 1.14 3.447 3.53 8.115 10.8 9.284 14.783.845 2.67-.575 4.48-2.49 4.884l-21.505 5.45c-4.804 1.286-7.83-4.09-4.407-7.875l13.408-18.382zm-.96 62.316c1.166 1.344 4.15 1.47 6.13-.64 3.852-3.212 8.344-9.366 9.97-13.572 1.074-2.585.044-4.855-1.826-5.424l-21.07-7.202c-4.675-1.702-8.038 3.288-4.956 7.356l11.75 19.483zm-21.287 5.99c-.305 1.753-2.505 3.225-5.29 2.44-4.86-.822-12.914-3.946-16.202-6.48-2.26-1.66-2.178-3.96-.87-5.41l14.33-17.044c3.468-4.097 8.583-2.24 8.04 3.743l-.01 22.75zm-32.9-52.05c-1.733-.394-4.17 1.065-4.524 3.935-1.123 4.803-1.358 13.44-.294 17.45.658 2.723 3.04 3.54 4.882 2.895l21.037-6.507c4.777-1.386 4.77-7.852-.117-9.32L195.69 57.23zm3.44-36.105c-1.307-2.384.492-4.768 4.03-6.243 6.224-2.26 11.42-3.686 17.64-4.732 4.276-.17 5.512 1.674 5.528 3.935 1.176 13.048 1.895 26.78 2.612 39.828.173 5.147-4.996 6.663-7.896 2.27C213.59 44.42 206.134 33 199.13 21.125z" fill="#B0252A"/><path d="M124.483 49.79v58.003c0 6.765-11.404 6.766-11.404 0V49.79c0-6.765 11.403-6.762 11.403 0M54.224 67.626l-14.957 48.326c-2.288 7.39-6.82 10.5-14.887 10.3-7.37-.177-8.513-4.523-7.696-7.39.898-3.15 3.53-4.085 6.103-4.09 4.565-.004 5.29.05 6.437-3.532-.024-2.18-1.24-4.385-1.998-5.943l-16.843-34.51c-1.927-3.952.02-7.603 3.098-8.73 2.958-1.086 5.77-.707 7.217 2.137L34.644 91.61l8.242-27.21c1.106-3.65 5.267-4.218 8.148-2.867 2.24 1.05 4.066 3.263 3.19 6.093M158.32 99.153c-3.917-4.92-3.408-20.04-.1-25.314 2.457-3.92 10.84-4.137 13.12 0 2.975 5.398 3.48 20.32-.36 25.224-2.822 3.606-9.882 3.574-12.66.09zm21.947-14.655c.117 5.164 1.533 28.85-20.12 28.154-3.434-.11-7.133-1.96-9.425-4.047-.35 1.34-.638 2.793-.638 4.746v9.967c0 6.762-11.27 6.766-11.27 0v-58c0-6.62 10.396-6.76 10.85-.43.973-.764 2.13-1.515 3.29-2.185 5.047-2.918 11.613-2.962 16.944-.43 9.45 4.488 10.37 14.742 10.37 22.226zM89.038 81.835c-.37-5.295-1.99-10.74-9.876-10.55-6.202.147-9.617 4.24-10.16 9.803.12 1.22.406 1.26 1.934 1.2h16.918c.844 0 1.123-.027 1.184-.453zm11.872 3.2c.024 1.05.403 5.748-2.554 6.217l-23.787.038c-2.062.078-2.674.777-2.385 2.695.403 2.26 1.185 4.168 2.212 5.458 2.776 3.485 8.53 3.914 13.57.987 2.664-2.176 4.07-3.643 5.544-4.136 3.24-1.08 6.025 1.934 6.08 5.024.027 1.343-.376 2.5-.995 3.795-3.326 4.714-9.13 7.808-18.344 7.9-18.102.175-20.238-16.166-20.347-24.872-.21-16.75 5.583-26.65 20.91-27.21 14.637-.54 20.387 9.54 20.097 24.105z" fill="#161613"/></g></svg>